#
# Track frame offsets:
#	150
#	13425
#	24157
#	35260
#	46260
#	55000
#	72807
#	83802
#	94855
#	114122
#	130245
#	146472
#	177670
#	188687
#	200642
#
# Disc length: 2828 seconds
#
# Submitted via: cddb-tool 0.4.7
#
#blues,classical,country,data,folk,jazz,newage,reggae,rock,soundtrack,misc
#CATEGORY=misc
DISCID=c50b0a0f
DTITLE=The Sheridan Ball Singers / 50 Most Loved Christmas Carols (Dis
DTITLE=c 3) Caroling Accompaniment
DYEAR=2005
DGENRE=Christmas
TTITLE0=Jingle Bells
TTITLE1=The First Noel
TTITLE2=Hark The Herald Angels Sing
TTITLE3=Up on the Housetop
TTITLE4=Ding Dong! Merily on high
TTITLE5=O Little town of Bethlehem
TTITLE6=Sussex carol
TTITLE7=Joly old Saint Nicholas
TTITLE8=Hallelujah - Chorus from the Messiah
TTITLE9=O Come all ye faithful
TTITLE10=What child is this
TTITLE11=O Holy night
TTITLE12=Away in a manger
TTITLE13=Joy to the world
TTITLE14=We wish you a merry Christmas
EXTD=
EXTT0=
EXTT1=
EXTT2=
EXTT3=
EXTT4=
EXTT5=
EXTT6=
EXTT7=
EXTT8=
EXTT9=
EXTT10=
EXTT11=
EXTT12=
EXTT13=
EXTT14=
PLAYORDER=
